<svg id="Capa_1" enable-background="new 0 0 512.043 512.043" height="512" viewBox="0 0 512.043 512.043" width="512" xmlns="http://www.w3.org/2000/svg"><g><g id="Page-1_40_"><g id="_x30_41---Solar-Battery" transform="translate(-1)"><path id="Shape_106_" d="m39.691 512.022h195.772c22.416-1.191 39.673-20.243 38.647-42.667v-.213c100.09-4.776 178.786-87.316 178.786-187.52s-78.696-182.745-178.786-187.52v-.213c1.026-22.424-16.232-41.476-38.647-42.667h-29.619v-25.6c0-14.138-11.462-25.6-25.6-25.6h-85.334c-14.138 0-25.6 11.462-25.6 25.6v25.6h-29.619c-22.416 1.191-39.673 20.242-38.648 42.666v375.467c-1.025 22.424 16.232 41.476 38.648 42.667zm396.552-230.4c-.148 90.842-71.406 165.659-162.133 170.231v-340.48c90.734 4.573 161.994 79.4 162.133 170.249zm-349.866-256c0-4.713 3.821-8.533 8.533-8.533h85.333c4.713 0 8.533 3.821 8.533 8.533v25.6h-102.4v-25.6zm-68.267 68.266c-.988-12.99 8.611-24.377 21.581-25.6h195.772c12.97 1.223 22.569 12.61 21.581 25.6v375.467c.988 12.99-8.611 24.377-21.581 25.6h-195.772c-12.97-1.223-22.569-12.61-21.581-25.6z"/><path id="Shape_105_" d="m60.896 284.967 47.411 29.747c.59.578.811 1.436.572 2.227l-21.427 86.263c-2.25 8.455 1.594 17.349 9.293 21.504 2.43 1.284 5.136 1.957 7.885 1.963 4.979-.022 9.704-2.201 12.954-5.973l100.608-114.56c3.706-4.263 5.356-9.937 4.514-15.522-.729-5.423-3.798-10.254-8.397-13.218l-47.403-29.969c-.626-.615-.836-1.538-.538-2.364l25.822-83.977c2.761-8.442-.717-17.668-8.363-22.187-6.941-4.067-15.787-2.67-21.137 3.337l-105.395 113.587c-3.884 4.229-5.674 9.972-4.881 15.659.671 5.536 3.783 10.481 8.482 13.483zm8.918-17.536 105.395-113.809c.268.125.487.335.623.597.287.581.315 1.257.077 1.86l-25.856 83.934c-2.622 8.186.545 17.116 7.74 21.82l47.394 29.952c.36.313.587.753.631 1.229.109.645-.054 1.307-.452 1.826l-101.197 114.27c-.293-.552-.345-1.2-.145-1.792l21.419-86.263c2.02-7.944-1.222-16.295-8.073-20.796l-47.403-29.73c-.385-.315-.623-.775-.657-1.271-.103-.654.081-1.319.504-1.827z"/><path id="Path_52_" d="m504.51 273.088h-25.6c-4.713 0-8.533 3.82-8.533 8.533s3.82 8.533 8.533 8.533h25.6c4.713 0 8.533-3.82 8.533-8.533s-3.82-8.533-8.533-8.533z"/><path id="Path_51_" d="m479.891 157.888c-2.357-4.081-7.575-5.48-11.657-3.123l-22.187 12.8c-2.662 1.513-4.309 4.337-4.316 7.399s1.628 5.893 4.283 7.418 5.924 1.511 8.566-.038l22.187-12.8c4.082-2.356 5.481-7.574 3.124-11.656z"/><path id="Path_50_" d="m377.654 70.43-12.8 22.187c-1.549 2.642-1.563 5.911-.038 8.566s4.356 4.29 7.418 4.283 5.886-1.654 7.399-4.316l12.8-22.187c2.318-4.078.911-9.262-3.151-11.608-4.062-2.345-9.256-.971-11.628 3.075z"/><path id="Path_49_" d="m367.977 458.979c-4.081 2.356-5.479 7.575-3.123 11.657l12.8 22.187c2.372 4.047 7.566 5.42 11.628 3.074 4.062-2.345 5.47-7.53 3.151-11.608l-12.8-22.187c-2.356-4.081-7.575-5.48-11.656-3.123z"/><path id="Path_48_" d="m442.942 384.022c-2.356 4.081-.958 9.3 3.123 11.657l22.187 12.8c4.078 2.318 9.262.911 11.608-3.151 2.345-4.062.972-9.256-3.074-11.628l-22.187-12.8c-4.082-2.358-9.3-.959-11.657 3.122z"/></g></g></g></svg>