<svg id="Layer_1" height="512" viewBox="0 0 64 64" width="512" xmlns="http://www.w3.org/2000/svg" data-name="Layer 1"><path d="m55.65 18.7607h-1.2252v-2.6132a.5.5 0 0 0 -1 0v2.6132h-2.5748v-2.6132a.5.5 0 0 0 -1 0v2.6132h-.7407a1.72 1.72 0 0 0 -1.7178 1.7178v3.27a4.9783 4.9783 0 0 0 4.4885 4.9392v14.4842a3.5042 3.5042 0 0 1 -3.5 3.5h-3.9152v-6.07a3.32 3.32 0 0 0 -3.3169-3.3164h-12.4736a3.32 3.32 0 0 0 -3.3169 3.3164v6.07h-4.6748a3.5042 3.5042 0 0 1 -3.5-3.5v-8.7539h8.3594a2.7278 2.7278 0 0 0 2.44-1.4951v-.001l9.1333-17.9483a1.6183 1.6183 0 0 0 -1.4428-2.3525h-19.1154a2.7259 2.7259 0 0 0 -2.44 1.4961l-9.1342 17.9482a1.6184 1.6184 0 0 0 1.4429 2.3526h9.7568v8.7539a4.505 4.505 0 0 0 4.5 4.5h4.6748v5.4033a3.32 3.32 0 0 0 3.3169 3.3164h12.4736a3.32 3.32 0 0 0 3.3169-3.3164v-5.4033h3.9152a4.505 4.505 0 0 0 4.5-4.5v-14.4842a4.9784 4.9784 0 0 0 4.4883-4.9387v-3.27a1.72 1.72 0 0 0 -1.7183-1.7183zm-28.5587 13.7071a1.7325 1.7325 0 0 1 -1.5493.95h-5.3l3.0685-6h6.3505zm-4.3931-6.05h-6.3141l3.0165-5.8978h6.3141zm7.4717 0h-6.3483l3.0165-5.8978h6.3333zm5.503-12.7969a.618.618 0 0 1 .5512.8994l-2.5441 4.9997h-6.33l3.0165-5.8984zm-6.43 0-3.0168 5.8991h-6.3141l3.0165-5.8984zm-14.2346.9491a1.7311 1.7311 0 0 1 1.5488-.9492h5.2481l-3.0166 5.8992h-6.2986zm-3.0275 5.95h6.2964l-3.0165 5.898h-6.2816zm-5.555 12.898a.6186.6186 0 0 1 -.5513-.8994l2.5955-5.1006h6.2791l-3.0685 6zm6.3784 0 3.0685-6h6.3141l-3.0685 6zm30.6606 19.6572a2.3193 2.3193 0 0 1 -2.3169 2.3164h-12.4736a2.3194 2.3194 0 0 1 -2.3169-2.3164v-12.4736a2.3193 2.3193 0 0 1 2.3169-2.3164h12.4736a2.3193 2.3193 0 0 1 2.3169 2.3164zm12.9034-29.3262a3.9886 3.9886 0 1 1 -7.9771 0v-3.27a.7187.7187 0 0 1 .7178-.7178h6.5411a.7187.7187 0 0 1 .7178.7178zm-18.1559 21.1586-.8081-.0011.6844-3.0461a1.2523 1.2523 0 0 0 -.2428-1.0625 1.2806 1.2806 0 0 0 -.9914-.4765 1.2566 1.2566 0 0 0 -.9574.4451l-5.2482 6.169a1.2643 1.2643 0 0 0 .963 2.0837h.9007l-.8192 3.2055a1.25 1.25 0 0 0 .2226 1.0837 1.2786 1.2786 0 0 0 1.0032.4913 1.2549 1.2549 0 0 0 .9658-.4556l5.2974-6.3631a1.2644 1.2644 0 0 0 -.97-2.0734zm.2015 1.4336-5.2975 6.3631a.2527.2527 0 0 1 -.1972.0954.2615.2615 0 0 1 -.2569-.3274l1.1378-4.4531h-2.1882a.2644.2644 0 0 1 -.2013-.4358l5.2482-6.1688a.253.253 0 0 1 .1957-.0932.2615.2615 0 0 1 .2585.32l-.9579 4.2636 2.0559.0028a.2644.2644 0 0 1 .2029.4334z"/></svg>