<svg height="512" viewBox="0 0 64 64" width="512" xmlns="http://www.w3.org/2000/svg"><g id="Layer_35" data-name="Layer 35"><path d="m60.31 42.34-19.65-6.41-.6-4.73h15.7a1 1 0 0 0 .33-1.94l-17.09-6.07-.65-5.09h13a1 1 0 0 0 .33-1.94l-14.18-5-.92-7.25a1.06 1.06 0 0 0 -1-.87h-7.15a1 1 0 0 0 -1 .87l-.92 7.24-14.2 5.05a1 1 0 0 0 .33 1.94h13l-.64 5.04-17.09 6.08a1 1 0 0 0 .33 1.94h15.76l-.6 4.71-19.71 6.43a1 1 0 0 0 .31 1.95h17.92l-6.55 15.32a1 1 0 0 0 1.49 1.21l15.14-10.41 15.14 10.41a1 1 0 0 0 1.49-1.21l-6.55-15.32h17.92a1 1 0 0 0 .31-1.95zm-31.22-35.58 1.71 2.55-2.51 3.69zm1.55 16-4.15 4.48c0-.07 1-7.88 1-7.88zm-1.58-4.66h5.94l-3 3.18zm2.94 6.12 4.62 5h-9.23zm1.36-1.47 3.16-3.41s1 7.83 1 7.89zm-4.72-6.65 3.37-5 3.36 5zm7.54 15.1-4.18 3.53-4.17-3.53zm-.45-18.15-2.52-3.74 1.72-2.55zm-3.73-5.53-1.69-2.52h3.4zm-6.14 24.63 4.59 3.85-5.7 4.81zm.29 10.14 5.85-4.94 5.84 4.94zm11.22 2-5.37 3.71-5.37-3.69zm-3.82-8.29 4.61-3.9s1.11 8.69 1.12 8.75zm16.45-6.8h-10.2c-.11-.85-.37-2.92-.48-3.79zm-4.45-13.1h-7.41l-.36-2.76zm-19.31-2.77-.36 2.77h-7.43zm-1.54 12.07-.48 3.8h-10.22zm-1.62 12.71-.53 4.18h-12.27zm-4.52 19.11 5.31-12.4 6.37 4.38zm15.2-8 6.37-4.38 5.31 12.4zm7.71-6.91-.53-4.17 12.77 4.17z"/></g></svg>